<svg height="990" width="720" xmlns="http://www.w3.org/2000/svg">
<rect height="990" fill="#555" width="720"></rect>
<text fill="#7f7" font-family="Courier New" font-size="12" xml:space="preserve">
<tspan x="10" y="26">21 megabytes installed</tspan>
<tspan x="10" y="42"></tspan>
<tspan x="10" y="58">node_modules</tspan>
<tspan x="10" y="74">└─┬ ember-source@2.12.1 </tspan>
<tspan x="10" y="90">  ├─┬ broccoli-funnel@1.2.0 </tspan>
<tspan x="10" y="106">  │ ├── array-equal@1.0.0 </tspan>
<tspan x="10" y="122">  │ ├── blank-object@1.0.2 </tspan>
<tspan x="10" y="138">  │ ├─┬ broccoli-plugin@1.3.0 </tspan>
<tspan x="10" y="154">  │ │ ├── promise-map-series@0.2.3 </tspan>
<tspan x="10" y="170">  │ │ └─┬ quick-temp@0.1.8 </tspan>
<tspan x="10" y="186">  │ │   ├── mktemp@0.4.0 </tspan>
<tspan x="10" y="202">  │ │   └─┬ underscore.string@3.3.4 </tspan>
<tspan x="10" y="218">  │ │     ├── sprintf-js@1.0.3 </tspan>
<tspan x="10" y="234">  │ │     └── util-deprecate@1.0.2 </tspan>
<tspan x="10" y="250">  │ ├─┬ debug@2.6.4 </tspan>
<tspan x="10" y="266">  │ │ └── ms@0.7.3 </tspan>
<tspan x="10" y="282">  │ ├── exists-sync@0.0.4 </tspan>
<tspan x="10" y="298">  │ ├── fast-ordered-set@1.0.3 </tspan>
<tspan x="10" y="314">  │ ├─┬ fs-tree-diff@0.5.6 </tspan>
<tspan x="10" y="330">  │ │ └── object-assign@4.1.1 </tspan>
<tspan x="10" y="346">  │ ├─┬ heimdalljs@0.2.4 </tspan>
<tspan x="10" y="362">  │ │ └── rsvp@3.2.1 </tspan>
<tspan x="10" y="378">  │ ├─┬ minimatch@3.0.3 </tspan>
<tspan x="10" y="394">  │ │ └─┬ brace-expansion@1.1.7 </tspan>
<tspan x="10" y="410">  │ │   ├── balanced-match@0.4.2 </tspan>
<tspan x="10" y="426">  │ │   └── concat-map@0.0.1 </tspan>
<tspan x="10" y="442">  │ ├─┬ mkdirp@0.5.1 </tspan>
<tspan x="10" y="458">  │ │ └── minimist@0.0.8 </tspan>
<tspan x="10" y="474">  │ ├── path-posix@1.0.0 </tspan>
<tspan x="10" y="490">  │ ├─┬ rimraf@2.6.1 </tspan>
<tspan x="10" y="506">  │ │ └─┬ glob@7.1.1 </tspan>
<tspan x="10" y="522">  │ │   ├── fs.realpath@1.0.0 </tspan>
<tspan x="10" y="538">  │ │   ├─┬ inflight@1.0.6 </tspan>
<tspan x="10" y="554">  │ │   │ └── wrappy@1.0.2 </tspan>
<tspan x="10" y="570">  │ │   ├── inherits@2.0.3 </tspan>
<tspan x="10" y="586">  │ │   ├── once@1.4.0 </tspan>
<tspan x="10" y="602">  │ │   └── path-is-absolute@1.0.1 </tspan>
<tspan x="10" y="618">  │ ├── symlink-or-copy@1.1.8 </tspan>
<tspan x="10" y="634">  │ └─┬ walk-sync@0.3.1 </tspan>
<tspan x="10" y="650">  │   ├── ensure-posix-path@1.0.2 </tspan>
<tspan x="10" y="666">  │   └── matcher-collection@1.0.4 </tspan>
<tspan x="10" y="682">  ├─┬ broccoli-merge-trees@1.2.4 </tspan>
<tspan x="10" y="698">  │ ├─┬ can-symlink@1.0.0 </tspan>
<tspan x="10" y="714">  │ │ └─┬ tmp@0.0.28 </tspan>
<tspan x="10" y="730">  │ │   └── os-tmpdir@1.0.2 </tspan>
<tspan x="10" y="746">  │ └── heimdalljs-logger@0.1.9 </tspan>
<tspan x="10" y="762">  ├── ember-cli-get-component-path-option@1.0.0 </tspan>
<tspan x="10" y="778">  ├─┬ ember-cli-normalize-entity-name@1.0.0 </tspan>
<tspan x="10" y="794">  │ └── silent-error@1.0.1 </tspan>
<tspan x="10" y="810">  ├── ember-cli-path-utils@1.0.0 </tspan>
<tspan x="10" y="826">  ├── ember-cli-string-utils@1.1.0 </tspan>
<tspan x="10" y="842">  ├── ember-cli-test-info@1.0.0 </tspan>
<tspan x="10" y="858">  ├── ember-cli-valid-component-name@1.0.0 </tspan>
<tspan x="10" y="874">  ├─┬ ember-cli-version-checker@1.2.0 </tspan>
<tspan x="10" y="890">  │ └── semver@5.3.0 </tspan>
<tspan x="10" y="906">  ├── jquery@3.2.1 </tspan>
<tspan x="10" y="922">  ├─┬ resolve@1.3.3 </tspan>
<tspan x="10" y="938">  │ └── path-parse@1.0.5 </tspan>
<tspan x="10" y="954">  ├── rsvp@3.5.0 </tspan>
<tspan x="10" y="970">  └── simple-dom@0.3.2</tspan>
</text>
</svg>
